<svg xmlns="http://www.w3.org/2000/svg" version="1.1" viewBox="-5.0 -10.0 110.0 135.0">
 <path d="m16.449 16.449c12.152-12.152 31.863-12.152 44.016 0 11.219 11.219 12.082 28.867 2.5938 41.078l3.6016 3.6016-5.5273 5.5273-3.6016-3.6016c-12.207 9.4883-29.859 8.625-41.078-2.5898-12.156-12.152-12.156-31.859-0.003906-44.016zm74.461 74.461c2.3398-2.3398 2.3398-6.1641 0-8.5039l-19.074-19.074c-0.53906-0.53906-1.4141-0.53906-1.9492 0l-6.5508 6.5508c-0.53906 0.53906-0.53906 1.4141 0 1.9492l19.074 19.074c2.3359 2.3438 6.1602 2.3438 8.5 0.003906zm-69.551-69.551c-9.4414 9.4414-9.4414 24.754 0 34.195 9.4414 9.4414 24.754 9.4414 34.195 0 9.4414-9.4414 9.4414-24.754 0-34.195-9.4414-9.4414-24.754-9.4414-34.195 0z" fill-rule="evenodd"/>
<text x="0.0" y="117.5" font-size="5.0" font-weight="bold" font-family="Arbeit Regular, Helvetica, Arial-Unicode, Arial, Sans-serif" fill="#000000">Created by Ilyas Aji Furqon</text><text x="0.0" y="122.5" font-size="5.0" font-weight="bold" font-family="Arbeit Regular, Helvetica, Arial-Unicode, Arial, Sans-serif" fill="#000000">from Noun Project</text></svg>