<svg xmlns="http://www.w3.org/2000/svg" viewBox="0 0 16 20" fill-rule="evenodd" clip-rule="evenodd" x="0px" y="0px"><path d="M11.663 12.724c-.617 0-1.118.501-1.118 1.118 0 .617.501 1.118 1.118 1.118.617 0 1.118-.501 1.118-1.118 0-.617-.501-1.118-1.118-1.118zm-6.859 0c-.617 0-1.118.501-1.118 1.118 0 .617.501 1.118 1.118 1.118.617 0 1.118-.501 1.118-1.118 0-.617-.501-1.118-1.118-1.118zm6.859.48c.352 0 .638.286.638.638 0 .352-.286.638-.638.638-.352 0-.638-.286-.638-.638 0-.352.286-.638.638-.638zm-6.859 0c.352 0 .638.286.638.638 0 .352-.286.638-.638.638-.352 0-.638-.286-.638-.638 0-.352.286-.638.638-.638zm-.536-2.392l-.748.949c-.115.146-.137.345-.056.512.081.167.251.273.437.273h9.15c.133 0 .24-.107.24-.24 0-.132-.107-.24-.24-.24h-9.15l-.005-.003.001-.005.739-.938h8.458c.115 0 .215-.082.236-.196l1.026-5.52c.013-.07-.006-.143-.051-.197-.046-.055-.114-.087-.185-.087h-.895c.289-.491.507-.893.578-1.05.196-.437.155-.911-.063-1.262l.705-.268c.124-.047.186-.186.139-.31-.047-.124-.185-.186-.309-.139l-.766.291.451-1.004c.054-.12 0-.263-.121-.317-.121-.054-.263 0-.317.121l-.451 1.003-.291-.765c-.047-.124-.186-.186-.31-.139-.123.047-.186.185-.139.309l.268.705c-.407.071-.789.354-.985.792-.04.087-.475 1.27-.751 2.033h-.177l-.501-2.187v-1.173c0-.133-.107-.24-.24-.24h-1.389c-.133 0-.24.107-.24.24v1.173l-.5 2.187h-.316l-.854-3.188c-.172-.642-.832-1.023-1.474-.851-.642.172-1.023.832-.851 1.473l.688 2.566h-1.041l-.376-2.722c-.016-.119-.117-.207-.237-.207h-1.715c-.132 0-.24.108-.24.24s.108.24.24.24h1.506l1.122 8.141zm2.251-.172l-.239-2.253h-1.862l.311 2.253h1.79zm2.014 0l.005-2.253h-1.775l.238 2.253h1.532zm2.058 0l.238-2.253h-1.811l-.005 2.253h1.578zm.721-2.253l-.239 2.253h1.821l.419-2.253h-2.001zm2.519-2.787h-2.224l-.244 2.307h2.039l.429-2.307zm-9.797 0l.318 2.307h1.878l-.245-2.307h-1.951zm4.51 0h-2.076l.244 2.307h1.827l.005-2.307zm2.58 0h-2.1l-.005 2.307h1.861l.244-2.307zm1.543-.48l.297-.505-.307-.139c-.121-.054-.175-.196-.121-.317.054-.121.196-.175.317-.12l.347.155.165-.32c.187-.417.057-.895-.313-1.062-.266-.119-.57-.038-.79.172l.348.156c.121.054.175.197.121.317-.054.121-.196.175-.317.121l-.406-.182-.335.902.457.205c.121.054.175.196.12.317-.054.121-.196.175-.317.121l-.425-.191-.135.37h1.294zm-2.474 0l-.439-1.92h-1.007l-.439 1.92h1.885zm-3.19 0l-.821-3.064c-.103-.386-.5-.614-.886-.511-.386.103-.614.5-.511.885l.721 2.69h.242l.277-.48c.066-.115.213-.154.328-.088.114.066.154.213.087.328l-.138.24h.701zm-.971-1.08l.136-.236c.066-.115.027-.262-.088-.328-.115-.066-.262-.027-.328.088l-.136.236c-.066.115-.027.262.088.328.114.066.261.027.328-.088zm-.421-1.08l.332-.576c.067-.115.027-.262-.087-.328-.115-.066-.262-.027-.328.088l-.333.576c-.066.115-.027.262.088.328.115.066.262.027.328-.088zm4.094-.24h-.909v-.72h.909v.72z"/><text x="0" y="31" fill="#000000" font-size="5px" font-weight="bold" font-family="'Helvetica Neue', Helvetica, Arial-Unicode, Arial, Sans-serif">Created by Darwisy Alfarizi</text><text x="0" y="36" fill="#000000" font-size="5px" font-weight="bold" font-family="'Helvetica Neue', Helvetica, Arial-Unicode, Arial, Sans-serif">from the Noun Project</text></svg>