<svg xmlns="http://www.w3.org/2000/svg" xmlns:xlink="http://www.w3.org/1999/xlink" version="1.1" x="0px" y="0px" viewBox="0 0 100 125" style="enable-background:new 0 0 100 100;" xml:space="preserve"><g><path d="M50.2,72.9c-12.5,0-22.7-10.2-22.7-22.7s10.2-22.7,22.7-22.7s22.7,10.2,22.7,22.7S62.7,72.9,50.2,72.9z    M50.2,29.6c-11.4,0-20.7,9.3-20.7,20.7S38.8,71,50.2,71s20.7-9.3,20.7-20.7S61.6,29.6,50.2,29.6z"/></g><g><g><path d="M50.2,60.2c-2.8,0-5.4-1.4-7.1-3.9c-0.3-0.5-0.2-1.1,0.3-1.4c0.5-0.3,1.1-0.2,1.4,0.3    c1.3,1.9,3.3,3.1,5.5,3.1c2.1,0,4.1-1.1,5.5-3.1c0.3-0.5,0.9-0.6,1.4-0.3s0.6,0.9,0.3,1.4C55.6,58.8,53,60.2,50.2,60.2z"/></g><g><path d="M43.1,48.1c-1.4,0-2.5-1.1-2.5-2.5s1.1-2.5,2.5-2.5s2.5,1.1,2.5,2.5S44.5,48.1,43.1,48.1z M43.1,45.1    c-0.3,0-0.5,0.2-0.5,0.5s0.2,0.5,0.5,0.5s0.5-0.2,0.5-0.5S43.4,45.1,43.1,45.1z"/></g><g><path d="M58.7,48.1c-1.4,0-2.5-1.1-2.5-2.5s1.1-2.5,2.5-2.5s2.5,1.1,2.5,2.5S60.1,48.1,58.7,48.1z M58.7,45.1    c-0.3,0-0.5,0.2-0.5,0.5s0.2,0.5,0.5,0.5s0.5-0.2,0.5-0.5S59,45.1,58.7,45.1z"/></g></g><g><path d="M50,21c-0.6,0-1-0.4-1-1v-9c0-0.6,0.4-1,1-1s1,0.4,1,1v9C51,20.6,50.6,21,50,21z"/></g><g><path d="M50,91c-0.6,0-1-0.4-1-1v-9c0-0.6,0.4-1,1-1s1,0.4,1,1v9C51,90.6,50.6,91,50,91z"/></g><g><path d="M89,52h-9c-0.6,0-1-0.4-1-1s0.4-1,1-1h9c0.6,0,1,0.4,1,1S89.6,52,89,52z"/></g><g><path d="M19,52h-9c-0.6,0-1-0.4-1-1s0.4-1,1-1h9c0.6,0,1,0.4,1,1S19.6,52,19,52z"/></g><g><path d="M78.1,79.8c-0.3,0-0.5-0.1-0.7-0.3l-6.8-6.8c-0.4-0.4-0.4-1,0-1.4s1-0.4,1.4,0l6.8,6.8   c0.4,0.4,0.4,1,0,1.4C78.6,79.7,78.3,79.8,78.1,79.8z"/></g><g><path d="M28.5,30.2c-0.3,0-0.5-0.1-0.7-0.3L20.9,23c-0.4-0.4-0.4-1,0-1.4s1-0.4,1.4,0l6.8,6.8   c0.4,0.4,0.4,1,0,1.4C29,30.1,28.7,30.2,28.5,30.2z"/></g><g><path d="M71.2,30.2c-0.3,0-0.5-0.1-0.7-0.3c-0.4-0.4-0.4-1,0-1.4l6.8-6.8c0.4-0.4,1-0.4,1.4,0s0.4,1,0,1.4   L72,29.9C71.8,30.1,71.5,30.2,71.2,30.2z"/></g><g><path d="M21.6,79.8c-0.3,0-0.5-0.1-0.7-0.3c-0.4-0.4-0.4-1,0-1.4l6.8-6.8c0.4-0.4,1-0.4,1.4,0s0.4,1,0,1.4   l-6.8,6.8C22.1,79.7,21.9,79.8,21.6,79.8z"/></g><text x="0" y="115" fill="#000000" font-size="5px" font-weight="bold" font-family="'Helvetica Neue', Helvetica, Arial-Unicode, Arial, Sans-serif">Created by María Villamil</text><text x="0" y="120" fill="#000000" font-size="5px" font-weight="bold" font-family="'Helvetica Neue', Helvetica, Arial-Unicode, Arial, Sans-serif">from the Noun Project</text></svg>