<svg xmlns="http://www.w3.org/2000/svg" version="1.1" viewBox="-5.0 -10.0 110.0 135.0">
 <path d="m75.801 64.199v-29.5c0-2.3984-1-4.6992-2.6992-6.1992-3.6016-3.1992-10.5-7-23.102-7s-19.5 3.8008-23.102 7c-1.6992 1.5-2.6992 3.8008-2.6992 6.1992v29.5c0 6.3008 4.8984 11.5 11.102 12.102l-5.3008 5.1016 2.1016 2.1992 3-2.8008h30.5l2.5 2.8008 2.1992-2-4.6992-5.3008c5.6992-0.90234 10.199-6 10.199-12.102zm-35.301-36.301h20.102v3h-20.102zm-9.5 34.203c0-2.3008 1.8984-4.1992 4.1992-4.1992s4.1992 1.8984 4.1992 4.1992c0 2.3008-1.8984 4.1992-4.1992 4.1992s-4.1992-1.8008-4.1992-4.1992zm7.1016 15.598 1.3984-1.3008-0.10156-0.10156h22.102l1.3008 1.3984zm26.699-11.398c-2.3008 0-4.1992-1.8984-4.1992-4.1992 0-2.3008 1.8984-4.1992 4.1992-4.1992s4.1992 1.8984 4.1992 4.1992c0 2.3984-1.8984 4.1992-4.1992 4.1992zm4.6992-14.199h-39v-16.902h39.102v16.902z"/>
 <path d="m73.199 12h-46.398c-8.6992 0-15.801 7.1016-15.801 15.801v58.199h4v-58.199c0-6.5 5.3008-11.801 11.801-11.801h46.5c6.3984 0 11.699 5.3008 11.699 11.801v58.199h4v-58.199c0-8.6992-7.1016-15.801-15.801-15.801z"/>
<text x="0.0" y="117.5" font-size="5.0" font-weight="bold" font-family="Arbeit Regular, Helvetica, Arial-Unicode, Arial, Sans-serif" fill="#000000">Created by sureya</text><text x="0.0" y="122.5" font-size="5.0" font-weight="bold" font-family="Arbeit Regular, Helvetica, Arial-Unicode, Arial, Sans-serif" fill="#000000">from Noun Project</text></svg>