<svg xmlns="http://www.w3.org/2000/svg" version="1.1" viewBox="-5.0 -10.0 110.0 135.0">
 <path d="m84.473 78.234h-68.949c-0.52734 0-0.97656-0.42578-0.97656-0.97656v-31.859c0-7.2227 5.8789-13.121 13.121-13.121h44.656c7.2227 0 13.121 5.8789 13.121 13.121v31.859c-0.019531 0.55078-0.44922 0.97656-0.97656 0.97656zm-67.992-1.9336h67.016v-30.902c0-6.1641-5.0234-11.188-11.188-11.188h-44.656c-6.1641 0-11.188 5.0234-11.188 11.188v30.902h0.019531z" fill-rule="evenodd"/>
 <path d="m84.352 44.605h-68.703c-0.52734 0-0.97656-0.42578-0.97656-0.97656 0-0.52734 0.42578-0.97656 0.97656-0.97656h68.703c0.52734 0 0.97656 0.42578 0.97656 0.97656 0 0.55078-0.44922 0.97656-0.97656 0.97656z" fill-rule="evenodd"/>
 <path d="m84.473 62.145h-68.949c-0.52734 0-0.97656-0.42578-0.97656-0.97656s0.42578-0.97656 0.97656-0.97656h68.949c0.52734 0 0.97656 0.42578 0.97656 0.97656s-0.44922 0.97656-0.97656 0.97656z" fill-rule="evenodd"/>
 <path d="m62.48 62.145h-24.961c-0.52734 0-0.97656-0.42578-0.97656-0.97656v-17.535c0-0.52734 0.42578-0.97656 0.97656-0.97656h24.961c0.52734 0 0.97656 0.42578 0.97656 0.97656v17.535c-0.019531 0.55078-0.44922 0.97656-0.97656 0.97656zm-24.008-1.9336h23.031v-15.605h-23.031z" fill-rule="evenodd"/>
 <path d="m50.254 34.23c-0.14062 0-0.28516-0.039063-0.42578-0.10156l-15.543-7.5469c-0.32422-0.16406-0.52734-0.46875-0.55078-0.83203-0.019531-0.36719 0.16406-0.69141 0.48828-0.875l15.277-8.9102c0.30469-0.18359 0.67188-0.18359 0.97656 0l15.301 8.9102c0.30469 0.18359 0.48828 0.50781 0.48828 0.875-0.019531 0.34375-0.22266 0.67188-0.52734 0.83203l-15.035 7.5469c-0.16016 0.0625-0.30469 0.10156-0.44531 0.10156zm-13.488-8.5859 13.488 6.5508 13.02-6.5312-13.266-7.7305-13.246 7.7109z" fill-rule="evenodd"/>
 <path d="m26.043 84.176c-2.1562 0-3.9062-1.7695-3.9062-3.9453s1.75-3.9453 3.9062-3.9453 3.9062 1.7695 3.9062 3.9453-1.7695 3.9453-3.9062 3.9453zm0-5.9414c-1.0781 0-1.9727 0.89453-1.9727 2.0156 0 1.0977 0.875 2.0156 1.9727 2.0156 1.0977 0 1.9727-0.89453 1.9727-2.0156-0.019531-1.1172-0.89453-2.0156-1.9727-2.0156z" fill-rule="evenodd"/>
 <path d="m32.594 84.176c-2.1562 0-3.9062-1.7695-3.9062-3.9453s1.75-3.9453 3.9062-3.9453 3.9062 1.7695 3.9062 3.9453-1.7695 3.9453-3.9062 3.9453zm0-5.9414c-1.0781 0-1.9727 0.89453-1.9727 2.0156 0 1.0977 0.875 2.0156 1.9727 2.0156s1.9727-0.89453 1.9727-2.0156c-0.019531-1.1172-0.89453-2.0156-1.9727-2.0156z" fill-rule="evenodd"/>
 <path d="m67.973 84.176c-2.1562 0-3.9062-1.7695-3.9062-3.9453s1.75-3.9453 3.9062-3.9453 3.9062 1.7695 3.9062 3.9453-1.7695 3.9453-3.9062 3.9453zm0-5.9414c-1.0781 0-1.9727 0.89453-1.9727 2.0156 0 1.0977 0.875 2.0156 1.9727 2.0156s1.9727-0.89453 1.9727-2.0156c-0.019531-1.1172-0.89453-2.0156-1.9727-2.0156z" fill-rule="evenodd"/>
 <path d="m74.504 84.176c-2.1562 0-3.9062-1.7695-3.9062-3.9453s1.75-3.9453 3.9062-3.9453 3.9062 1.7695 3.9062 3.9453-1.7695 3.9453-3.9062 3.9453zm0-5.9414c-1.0781 0-1.9727 0.89453-1.9727 2.0156 0 1.0977 0.875 2.0156 1.9727 2.0156s1.9727-0.89453 1.9727-2.0156c-0.019531-1.1172-0.89453-2.0156-1.9727-2.0156z" fill-rule="evenodd"/>
 <path d="m86.711 84.176h-73.422c-0.52734 0-0.97656-0.42578-0.97656-0.97656s0.42578-0.97656 0.97656-0.97656h73.422c0.52734 0 0.97656 0.42578 0.97656 0.97656s-0.44531 0.97656-0.97656 0.97656z" fill-rule="evenodd"/>
<text x="0.0" y="117.5" font-size="5.0" font-weight="bold" font-family="Arbeit Regular, Helvetica, Arial-Unicode, Arial, Sans-serif" fill="#000000">Created by Junaid Ali</text><text x="0.0" y="122.5" font-size="5.0" font-weight="bold" font-family="Arbeit Regular, Helvetica, Arial-Unicode, Arial, Sans-serif" fill="#000000">from Noun Project</text></svg>